<mxfile host="Electron" modified="2023-12-06T20:41:12.488Z" agent="Mozilla/5.0 (Windows NT 10.0; Win64; x64) AppleWebKit/537.36 (KHTML, like Gecko) draw.io/22.1.2 Chrome/114.0.5735.289 Electron/25.9.4 Safari/537.36" etag="6It73lLd7zpknty7UBTN" version="22.1.2" type="device">
  <diagram name="Page-1" id="58cdce13-f638-feb5-8d6f-7d28b1aa9fa0">
    <mxGraphModel dx="1715" dy="791" grid="1" gridSize="10" guides="1" tooltips="1" connect="1" arrows="1" fold="1" page="1" pageScale="1" pageWidth="1100" pageHeight="850" background="none" math="0" shadow="0">
      <root>
        <mxCell id="0" />
        <mxCell id="1" parent="0" />
        <mxCell id="ppQbEh0lDNAECC2LXvR1-186" value="Panou administrator" style="swimlane;fontStyle=0;childLayout=stackLayout;horizontal=1;startSize=26;fillColor=none;horizontalStack=0;resizeParent=1;resizeParentMax=0;resizeLast=0;collapsible=1;marginBottom=0;whiteSpace=wrap;html=1;rounded=1;" vertex="1" parent="1">
          <mxGeometry x="790" y="333" width="190" height="110" as="geometry" />
        </mxCell>
        <mxCell id="ppQbEh0lDNAECC2LXvR1-87" value="sesizare" style="shape=umlFrame;whiteSpace=wrap;html=1;rounded=1;shadow=0;comic=0;labelBackgroundColor=none;strokeWidth=1;fontFamily=Verdana;fontSize=12;align=center;opacity=80;" vertex="1" parent="1">
          <mxGeometry x="25" y="53" width="1050" height="745" as="geometry" />
        </mxCell>
        <mxCell id="ppQbEh0lDNAECC2LXvR1-154" value="Feedback" style="swimlane;fontStyle=0;childLayout=stackLayout;horizontal=1;startSize=26;fillColor=none;horizontalStack=0;resizeParent=1;resizeParentMax=0;resizeLast=0;collapsible=1;marginBottom=0;whiteSpace=wrap;html=1;rounded=1;" vertex="1" parent="1">
          <mxGeometry x="875" y="132.5" width="180" height="130.5" as="geometry" />
        </mxCell>
        <mxCell id="ppQbEh0lDNAECC2LXvR1-161" style="edgeStyle=elbowEdgeStyle;html=1;labelBackgroundColor=none;endArrow=open;endSize=8;strokeColor=#ff0000;fontFamily=Verdana;fontSize=12;align=left;entryX=1.136;entryY=0.518;entryDx=0;entryDy=0;entryPerimeter=0;" edge="1" parent="ppQbEh0lDNAECC2LXvR1-154" target="ppQbEh0lDNAECC2LXvR1-216">
          <mxGeometry relative="1" as="geometry">
            <mxPoint x="95" y="100.5" as="sourcePoint" />
            <mxPoint x="10" y="83" as="targetPoint" />
            <Array as="points">
              <mxPoint x="85" y="80.25" />
            </Array>
          </mxGeometry>
        </mxCell>
        <mxCell id="ppQbEh0lDNAECC2LXvR1-214" style="edgeStyle=orthogonalEdgeStyle;html=1;entryX=0.704;entryY=-0.004;labelBackgroundColor=none;endArrow=open;endSize=8;strokeColor=#ff0000;fontFamily=Verdana;fontSize=12;align=left;exitX=0;exitY=1;exitDx=0;exitDy=0;entryDx=0;entryDy=0;entryPerimeter=0;" edge="1" parent="1" source="ppQbEh0lDNAECC2LXvR1-55" target="ppQbEh0lDNAECC2LXvR1-203">
          <mxGeometry relative="1" as="geometry">
            <mxPoint x="400" y="236.5" as="sourcePoint" />
            <Array as="points">
              <mxPoint x="400" y="199" />
              <mxPoint x="400" y="303" />
              <mxPoint x="230" y="303" />
            </Array>
            <mxPoint x="230" y="286.5" as="targetPoint" />
          </mxGeometry>
        </mxCell>
        <mxCell id="ppQbEh0lDNAECC2LXvR1-196" style="edgeStyle=orthogonalEdgeStyle;html=1;labelBackgroundColor=none;endArrow=open;endSize=8;strokeColor=#ff0000;fontFamily=Verdana;fontSize=12;align=left;curved=1;" edge="1" parent="1">
          <mxGeometry relative="1" as="geometry">
            <Array as="points">
              <mxPoint x="652" y="693" />
              <mxPoint x="652" y="520" />
              <mxPoint x="840" y="520" />
              <mxPoint x="840" y="473" />
              <mxPoint x="870" y="473" />
            </Array>
            <mxPoint x="340" y="693" as="sourcePoint" />
            <mxPoint x="870" y="443" as="targetPoint" />
          </mxGeometry>
        </mxCell>
        <mxCell id="ppQbEh0lDNAECC2LXvR1-192" style="edgeStyle=elbowEdgeStyle;html=1;labelBackgroundColor=none;endArrow=open;endSize=8;strokeColor=#ff0000;fontFamily=Verdana;fontSize=12;align=left;" edge="1" parent="1">
          <mxGeometry relative="1" as="geometry">
            <mxPoint x="930" y="263" as="sourcePoint" />
            <mxPoint x="930" y="333" as="targetPoint" />
          </mxGeometry>
        </mxCell>
        <mxCell id="ppQbEh0lDNAECC2LXvR1-137" value="" style="rounded=0;whiteSpace=wrap;html=1;fillColor=none;" vertex="1" parent="1">
          <mxGeometry x="350" y="333" width="300" height="190" as="geometry" />
        </mxCell>
        <mxCell id="ppQbEh0lDNAECC2LXvR1-190" style="edgeStyle=orthogonalEdgeStyle;html=1;labelBackgroundColor=none;endArrow=open;endSize=8;strokeColor=#ff0000;fontFamily=Verdana;fontSize=12;align=left;curved=1;exitX=0.633;exitY=0.88;exitDx=0;exitDy=0;exitPerimeter=0;" edge="1" parent="1" source="ppQbEh0lDNAECC2LXvR1-55">
          <mxGeometry relative="1" as="geometry">
            <Array as="points">
              <mxPoint x="530" y="223" />
              <mxPoint x="630" y="223" />
              <mxPoint x="630" y="313" />
              <mxPoint x="760" y="313" />
              <mxPoint x="760" y="363" />
            </Array>
            <mxPoint x="530" y="191" as="sourcePoint" />
            <mxPoint x="790" y="363" as="targetPoint" />
          </mxGeometry>
        </mxCell>
        <mxCell id="ppQbEh0lDNAECC2LXvR1-185" style="edgeStyle=orthogonalEdgeStyle;html=1;labelBackgroundColor=none;endArrow=open;endSize=8;strokeColor=#ff0000;fontFamily=Verdana;fontSize=12;align=left;exitX=1;exitY=1;curved=1;exitDx=0;exitDy=0;" edge="1" parent="1" source="ppQbEh0lDNAECC2LXvR1-55">
          <mxGeometry relative="1" as="geometry">
            <mxPoint x="631" y="215.5" as="sourcePoint" />
            <mxPoint x="875" y="255.5" as="targetPoint" />
            <Array as="points">
              <mxPoint x="631" y="199" />
              <mxPoint x="631" y="263" />
              <mxPoint x="740" y="263" />
              <mxPoint x="740" y="256" />
            </Array>
          </mxGeometry>
        </mxCell>
        <mxCell id="ppQbEh0lDNAECC2LXvR1-146" value="" style="endArrow=classic;html=1;rounded=0;exitX=0.62;exitY=0.26;exitDx=0;exitDy=0;exitPerimeter=0;" edge="1" parent="1" source="ppQbEh0lDNAECC2LXvR1-144">
          <mxGeometry width="50" height="50" relative="1" as="geometry">
            <mxPoint x="180" y="673" as="sourcePoint" />
            <mxPoint x="280" y="653" as="targetPoint" />
          </mxGeometry>
        </mxCell>
        <mxCell id="ppQbEh0lDNAECC2LXvR1-135" value="Statistici" style="swimlane;fontStyle=0;childLayout=stackLayout;horizontal=1;startSize=26;fillColor=none;horizontalStack=0;resizeParent=1;resizeParentMax=0;resizeLast=0;collapsible=1;marginBottom=0;whiteSpace=wrap;html=1;rounded=1;" vertex="1" parent="1">
          <mxGeometry x="170" y="563" width="170" height="160" as="geometry" />
        </mxCell>
        <mxCell id="ppQbEh0lDNAECC2LXvR1-131" style="edgeStyle=orthogonalEdgeStyle;html=1;labelBackgroundColor=none;endArrow=open;endSize=8;strokeColor=#ff0000;fontFamily=Verdana;fontSize=12;align=left;curved=1;entryX=0.013;entryY=0.624;entryDx=0;entryDy=0;exitX=0.423;exitY=0.999;exitDx=0;exitDy=0;exitPerimeter=0;entryPerimeter=0;" edge="1" parent="1" source="ppQbEh0lDNAECC2LXvR1-124" target="ppQbEh0lDNAECC2LXvR1-127">
          <mxGeometry relative="1" as="geometry">
            <mxPoint x="804" y="736" as="sourcePoint" />
            <mxPoint x="780" y="730" as="targetPoint" />
            <Array as="points">
              <mxPoint x="885" y="763" />
              <mxPoint x="750" y="763" />
              <mxPoint x="750" y="721" />
              <mxPoint x="760" y="721" />
            </Array>
          </mxGeometry>
        </mxCell>
        <mxCell id="ppQbEh0lDNAECC2LXvR1-125" style="edgeStyle=orthogonalEdgeStyle;html=1;labelBackgroundColor=none;endArrow=open;endSize=8;strokeColor=#ff0000;fontFamily=Verdana;fontSize=12;align=left;curved=1;entryX=-0.002;entryY=0.316;entryDx=0;entryDy=0;entryPerimeter=0;exitX=0.847;exitY=0.673;exitDx=0;exitDy=0;exitPerimeter=0;" edge="1" parent="1" source="ppQbEh0lDNAECC2LXvR1-106" target="ppQbEh0lDNAECC2LXvR1-124">
          <mxGeometry relative="1" as="geometry">
            <mxPoint x="820" y="680" as="sourcePoint" />
            <mxPoint x="826" y="724" as="targetPoint" />
          </mxGeometry>
        </mxCell>
        <mxCell id="ppQbEh0lDNAECC2LXvR1-95" value="Trimitere sesizare" style="swimlane;fontStyle=0;childLayout=stackLayout;horizontal=1;startSize=26;fillColor=none;horizontalStack=0;resizeParent=1;resizeParentMax=0;resizeLast=0;collapsible=1;marginBottom=0;whiteSpace=wrap;html=1;rounded=1;" vertex="1" parent="1">
          <mxGeometry x="690" y="599" width="260" height="154" as="geometry" />
        </mxCell>
        <mxCell id="382b91b5511bd0f7-1" value="" style="ellipse;html=1;shape=startState;fillColor=#000000;strokeColor=#ff0000;rounded=1;shadow=0;comic=0;labelBackgroundColor=none;fontFamily=Verdana;fontSize=12;fontColor=#000000;align=center;direction=south;" parent="1" vertex="1">
          <mxGeometry x="510" y="76" width="30" height="30" as="geometry" />
        </mxCell>
        <mxCell id="ppQbEh0lDNAECC2LXvR1-35" style="edgeStyle=elbowEdgeStyle;html=1;labelBackgroundColor=none;endArrow=open;endSize=8;strokeColor=#ff0000;fontFamily=Verdana;fontSize=12;align=left;exitX=0.25;exitY=1;entryX=0.5;entryY=0;entryDx=0;entryDy=0;" edge="1" parent="1" target="ppQbEh0lDNAECC2LXvR1-55">
          <mxGeometry relative="1" as="geometry">
            <mxPoint x="524.88" y="103" as="sourcePoint" />
            <mxPoint x="525" y="167.5" as="targetPoint" />
          </mxGeometry>
        </mxCell>
        <mxCell id="ppQbEh0lDNAECC2LXvR1-43" value="Intrare guest" style="swimlane;fontStyle=0;childLayout=stackLayout;horizontal=1;startSize=26;fillColor=none;horizontalStack=0;resizeParent=1;resizeParentMax=0;resizeLast=0;collapsible=1;marginBottom=0;whiteSpace=wrap;html=1;rounded=1;" vertex="1" parent="1">
          <mxGeometry x="180" y="206" width="140" height="47" as="geometry" />
        </mxCell>
        <mxCell id="ppQbEh0lDNAECC2LXvR1-48" style="edgeStyle=orthogonalEdgeStyle;html=1;labelBackgroundColor=none;endArrow=open;endSize=8;strokeColor=#ff0000;fontFamily=Verdana;fontSize=12;align=left;entryX=0.5;entryY=0;entryDx=0;entryDy=0;curved=1;exitX=0.254;exitY=0.32;exitDx=0;exitDy=0;exitPerimeter=0;" edge="1" parent="1" source="ppQbEh0lDNAECC2LXvR1-55">
          <mxGeometry relative="1" as="geometry">
            <mxPoint x="455.98" y="171.21299999999997" as="sourcePoint" />
            <mxPoint x="249.88" y="206" as="targetPoint" />
            <Array as="points">
              <mxPoint x="516" y="171" />
              <mxPoint x="350" y="171" />
              <mxPoint x="350" y="153" />
              <mxPoint x="250" y="153" />
            </Array>
          </mxGeometry>
        </mxCell>
        <mxCell id="ppQbEh0lDNAECC2LXvR1-50" value="Creare cont" style="swimlane;fontStyle=0;childLayout=stackLayout;horizontal=1;startSize=26;fillColor=none;horizontalStack=0;resizeParent=1;resizeParentMax=0;resizeLast=0;collapsible=1;marginBottom=0;whiteSpace=wrap;html=1;rounded=1;" vertex="1" parent="1">
          <mxGeometry x="700" y="183" width="140" height="47" as="geometry" />
        </mxCell>
        <mxCell id="ppQbEh0lDNAECC2LXvR1-52" style="edgeStyle=orthogonalEdgeStyle;html=1;labelBackgroundColor=none;endArrow=open;endSize=8;strokeColor=#ff0000;fontFamily=Verdana;fontSize=12;align=left;exitX=0.994;exitY=0.477;curved=1;exitDx=0;exitDy=0;exitPerimeter=0;" edge="1" parent="1" source="ppQbEh0lDNAECC2LXvR1-55" target="ppQbEh0lDNAECC2LXvR1-50">
          <mxGeometry relative="1" as="geometry">
            <mxPoint x="595" y="190.9999999999999" as="sourcePoint" />
            <mxPoint x="670.26" y="206" as="targetPoint" />
          </mxGeometry>
        </mxCell>
        <mxCell id="ppQbEh0lDNAECC2LXvR1-54" style="edgeStyle=orthogonalEdgeStyle;html=1;labelBackgroundColor=none;endArrow=open;endSize=8;strokeColor=#ff0000;fontFamily=Verdana;fontSize=12;align=left;exitX=0.335;exitY=-0.01;entryX=0.507;entryY=0.122;entryDx=0;entryDy=0;exitDx=0;exitDy=0;exitPerimeter=0;entryPerimeter=0;curved=1;" edge="1" parent="1" source="ppQbEh0lDNAECC2LXvR1-50" target="382b91b5511bd0f7-1">
          <mxGeometry relative="1" as="geometry">
            <mxPoint x="731.62" y="165.094" as="sourcePoint" />
            <mxPoint x="700" y="143" as="targetPoint" />
            <Array as="points">
              <mxPoint x="747" y="103" />
              <mxPoint x="560" y="103" />
              <mxPoint x="560" y="91" />
            </Array>
          </mxGeometry>
        </mxCell>
        <mxCell id="ppQbEh0lDNAECC2LXvR1-55" value="" style="rhombus;whiteSpace=wrap;html=1;fillColor=#6a00ff;fontColor=#ffffff;strokeColor=#3700CC;" vertex="1" parent="1">
          <mxGeometry x="507.5" y="176" width="35" height="30" as="geometry" />
        </mxCell>
        <mxCell id="ppQbEh0lDNAECC2LXvR1-57" value="&lt;span style=&quot;font-size: 10px;&quot;&gt;Cont inexistent&lt;/span&gt;" style="text;html=1;strokeColor=none;fillColor=none;align=center;verticalAlign=middle;whiteSpace=wrap;rounded=0;" vertex="1" parent="1">
          <mxGeometry x="590" y="161" width="70" height="23.5" as="geometry" />
        </mxCell>
        <mxCell id="ppQbEh0lDNAECC2LXvR1-58" value="&lt;span style=&quot;font-size: 10px;&quot;&gt;Cont neintordus - mod anonim&lt;/span&gt;" style="text;html=1;strokeColor=none;fillColor=none;align=center;verticalAlign=middle;whiteSpace=wrap;rounded=0;" vertex="1" parent="1">
          <mxGeometry x="370" y="134" width="90" height="27" as="geometry" />
        </mxCell>
        <mxCell id="ppQbEh0lDNAECC2LXvR1-59" value="Selectare tip șablon" style="swimlane;fontStyle=0;childLayout=stackLayout;horizontal=1;startSize=26;fillColor=none;horizontalStack=0;resizeParent=1;resizeParentMax=0;resizeLast=0;collapsible=1;marginBottom=0;whiteSpace=wrap;html=1;rounded=1;" vertex="1" parent="1">
          <mxGeometry x="455" y="263" width="140" height="47" as="geometry" />
        </mxCell>
        <mxCell id="ppQbEh0lDNAECC2LXvR1-60" style="edgeStyle=elbowEdgeStyle;html=1;labelBackgroundColor=none;endArrow=open;endSize=8;strokeColor=#ff0000;fontFamily=Verdana;fontSize=12;align=left;exitX=0.25;exitY=1;entryX=0.5;entryY=0;entryDx=0;entryDy=0;" edge="1" parent="1" target="ppQbEh0lDNAECC2LXvR1-59">
          <mxGeometry relative="1" as="geometry">
            <mxPoint x="524.9399999999999" y="206" as="sourcePoint" />
            <mxPoint x="525" y="253" as="targetPoint" />
          </mxGeometry>
        </mxCell>
        <mxCell id="ppQbEh0lDNAECC2LXvR1-61" value="" style="rhombus;whiteSpace=wrap;html=1;fillColor=#6a00ff;fontColor=#ffffff;strokeColor=#3700CC;" vertex="1" parent="1">
          <mxGeometry x="460" y="393" width="20" height="12" as="geometry" />
        </mxCell>
        <mxCell id="ppQbEh0lDNAECC2LXvR1-63" style="edgeStyle=orthogonalEdgeStyle;html=1;labelBackgroundColor=none;endArrow=open;endSize=8;strokeColor=#ff0000;fontFamily=Verdana;fontSize=12;align=left;exitX=0.25;exitY=1;curved=1;" edge="1" parent="1">
          <mxGeometry relative="1" as="geometry">
            <mxPoint x="209.99999999999994" y="253" as="sourcePoint" />
            <mxPoint x="454" y="293" as="targetPoint" />
            <Array as="points">
              <mxPoint x="210" y="283" />
              <mxPoint x="350" y="283" />
              <mxPoint x="350" y="293" />
            </Array>
          </mxGeometry>
        </mxCell>
        <mxCell id="ppQbEh0lDNAECC2LXvR1-64" style="edgeStyle=elbowEdgeStyle;html=1;labelBackgroundColor=none;endArrow=open;endSize=8;strokeColor=#ff0000;fontFamily=Verdana;fontSize=12;align=left;exitX=0.25;exitY=1;entryX=0.485;entryY=0.348;entryDx=0;entryDy=0;entryPerimeter=0;" edge="1" parent="1" target="ppQbEh0lDNAECC2LXvR1-68">
          <mxGeometry relative="1" as="geometry">
            <mxPoint x="522.3899999999999" y="310" as="sourcePoint" />
            <mxPoint x="523" y="353" as="targetPoint" />
          </mxGeometry>
        </mxCell>
        <mxCell id="ppQbEh0lDNAECC2LXvR1-65" value="&lt;span style=&quot;font-size: 10px;&quot;&gt;Tip șablon selectat&lt;/span&gt;" style="text;html=1;strokeColor=none;fillColor=none;align=center;verticalAlign=middle;whiteSpace=wrap;rounded=0;fontSize=10;" vertex="1" parent="1">
          <mxGeometry x="530" y="306" width="90" height="27" as="geometry" />
        </mxCell>
        <mxCell id="ppQbEh0lDNAECC2LXvR1-68" value="" style="line;strokeWidth=2;html=1;" vertex="1" parent="1">
          <mxGeometry x="445" y="351" width="160" height="10" as="geometry" />
        </mxCell>
        <mxCell id="ppQbEh0lDNAECC2LXvR1-69" style="edgeStyle=elbowEdgeStyle;html=1;labelBackgroundColor=none;endArrow=open;endSize=8;strokeColor=#ff0000;fontFamily=Verdana;fontSize=12;align=left;exitX=0.845;exitY=0.628;exitDx=0;exitDy=0;exitPerimeter=0;" edge="1" parent="1" source="ppQbEh0lDNAECC2LXvR1-68">
          <mxGeometry relative="1" as="geometry">
            <mxPoint x="580" y="361" as="sourcePoint" />
            <mxPoint x="581" y="393" as="targetPoint" />
          </mxGeometry>
        </mxCell>
        <mxCell id="ppQbEh0lDNAECC2LXvR1-70" style="edgeStyle=elbowEdgeStyle;html=1;labelBackgroundColor=none;endArrow=open;endSize=8;strokeColor=#ff0000;fontFamily=Verdana;fontSize=12;align=left;exitX=0.155;exitY=0.681;exitDx=0;exitDy=0;exitPerimeter=0;" edge="1" parent="1" source="ppQbEh0lDNAECC2LXvR1-68">
          <mxGeometry relative="1" as="geometry">
            <mxPoint x="470" y="361" as="sourcePoint" />
            <mxPoint x="470" y="393" as="targetPoint" />
          </mxGeometry>
        </mxCell>
        <mxCell id="ppQbEh0lDNAECC2LXvR1-73" value="&lt;font color=&quot;#004c99&quot; style=&quot;font-size: 8px;&quot;&gt;Precompletare&lt;/font&gt;" style="rounded=1;whiteSpace=wrap;html=1;arcSize=24;shadow=0;comic=0;labelBackgroundColor=none;fontFamily=Verdana;fontSize=12;align=center;fillColor=#66FF66;strokeColor=#000000;" vertex="1" parent="1">
          <mxGeometry x="550" y="393" width="60" height="30" as="geometry" />
        </mxCell>
        <mxCell id="ppQbEh0lDNAECC2LXvR1-76" style="edgeStyle=elbowEdgeStyle;html=1;labelBackgroundColor=none;endArrow=open;endSize=8;strokeColor=#ff0000;fontFamily=Verdana;fontSize=12;align=left;exitX=0.488;exitY=1.037;exitDx=0;exitDy=0;exitPerimeter=0;" edge="1" parent="1" source="ppQbEh0lDNAECC2LXvR1-61">
          <mxGeometry relative="1" as="geometry">
            <mxPoint x="469.6999999999999" y="405" as="sourcePoint" />
            <mxPoint x="470" y="423" as="targetPoint" />
          </mxGeometry>
        </mxCell>
        <mxCell id="ppQbEh0lDNAECC2LXvR1-77" value="&lt;p style=&quot;line-height: 70%;&quot;&gt;&lt;font color=&quot;#004c99&quot; style=&quot;font-size: 8px;&quot;&gt;Completare manuală&lt;/font&gt;&lt;/p&gt;" style="rounded=1;whiteSpace=wrap;html=1;arcSize=24;shadow=0;comic=0;labelBackgroundColor=none;fontFamily=Verdana;fontSize=12;align=center;fillColor=#66FF66;strokeColor=#000000;" vertex="1" parent="1">
          <mxGeometry x="440" y="423" width="60" height="30" as="geometry" />
        </mxCell>
        <mxCell id="ppQbEh0lDNAECC2LXvR1-79" style="html=1;entryX=0;entryY=0.5;labelBackgroundColor=none;endArrow=open;endSize=8;strokeColor=#ff0000;fontFamily=Verdana;fontSize=12;align=left;exitX=0;exitY=0.5;edgeStyle=elbowEdgeStyle;entryDx=0;entryDy=0;exitDx=0;exitDy=0;" edge="1" parent="1" source="ppQbEh0lDNAECC2LXvR1-61" target="ppQbEh0lDNAECC2LXvR1-81">
          <mxGeometry relative="1" as="geometry">
            <mxPoint x="455" y="398" as="sourcePoint" />
            <Array as="points">
              <mxPoint x="420" y="433" />
            </Array>
            <mxPoint x="285" y="448" as="targetPoint" />
          </mxGeometry>
        </mxCell>
        <mxCell id="ppQbEh0lDNAECC2LXvR1-80" style="edgeStyle=elbowEdgeStyle;html=1;labelBackgroundColor=none;endArrow=open;endSize=8;strokeColor=#ff0000;fontFamily=Verdana;fontSize=12;align=left;exitX=0.488;exitY=1.037;exitDx=0;exitDy=0;exitPerimeter=0;" edge="1" parent="1">
          <mxGeometry relative="1" as="geometry">
            <mxPoint x="469.88" y="453" as="sourcePoint" />
            <mxPoint x="469.88" y="472" as="targetPoint" />
          </mxGeometry>
        </mxCell>
        <mxCell id="ppQbEh0lDNAECC2LXvR1-81" value="" style="rhombus;whiteSpace=wrap;html=1;fillColor=#6a00ff;fontColor=#ffffff;strokeColor=#3700CC;" vertex="1" parent="1">
          <mxGeometry x="460" y="473" width="20" height="12" as="geometry" />
        </mxCell>
        <mxCell id="ppQbEh0lDNAECC2LXvR1-82" value="mod oaspete -&lt;br&gt;date inexistente" style="text;html=1;strokeColor=none;fillColor=none;align=center;verticalAlign=middle;whiteSpace=wrap;rounded=0;fontSize=10;" vertex="1" parent="1">
          <mxGeometry x="360" y="403" width="50" height="45" as="geometry" />
        </mxCell>
        <mxCell id="ppQbEh0lDNAECC2LXvR1-83" style="edgeStyle=elbowEdgeStyle;html=1;labelBackgroundColor=none;endArrow=open;endSize=8;strokeColor=#ff0000;fontFamily=Verdana;fontSize=12;align=left;exitX=0.845;exitY=0.628;exitDx=0;exitDy=0;exitPerimeter=0;entryX=0.846;entryY=0.336;entryDx=0;entryDy=0;entryPerimeter=0;" edge="1" parent="1" target="ppQbEh0lDNAECC2LXvR1-86">
          <mxGeometry relative="1" as="geometry">
            <mxPoint x="580" y="423" as="sourcePoint" />
            <mxPoint x="580.1199999999999" y="506.86" as="targetPoint" />
          </mxGeometry>
        </mxCell>
        <mxCell id="ppQbEh0lDNAECC2LXvR1-84" style="edgeStyle=elbowEdgeStyle;html=1;labelBackgroundColor=none;endArrow=open;endSize=8;strokeColor=#ff0000;fontFamily=Verdana;fontSize=12;align=left;exitX=0.488;exitY=1.037;exitDx=0;exitDy=0;exitPerimeter=0;entryX=0.157;entryY=0.32;entryDx=0;entryDy=0;entryPerimeter=0;" edge="1" parent="1" target="ppQbEh0lDNAECC2LXvR1-86">
          <mxGeometry relative="1" as="geometry">
            <mxPoint x="469.99" y="485" as="sourcePoint" />
            <mxPoint x="470.1999999999998" y="506.58000000000004" as="targetPoint" />
          </mxGeometry>
        </mxCell>
        <mxCell id="ppQbEh0lDNAECC2LXvR1-86" value="" style="line;strokeWidth=2;html=1;" vertex="1" parent="1">
          <mxGeometry x="445" y="501" width="160" height="10" as="geometry" />
        </mxCell>
        <mxCell id="ppQbEh0lDNAECC2LXvR1-91" value="Generare text" style="swimlane;fontStyle=0;childLayout=stackLayout;horizontal=1;startSize=26;fillColor=none;horizontalStack=0;resizeParent=1;resizeParentMax=0;resizeLast=0;collapsible=1;marginBottom=0;whiteSpace=wrap;html=1;rounded=1;" vertex="1" parent="1">
          <mxGeometry x="450" y="553" width="140" height="47" as="geometry" />
        </mxCell>
        <mxCell id="ppQbEh0lDNAECC2LXvR1-92" value="&lt;span style=&quot;font-size: 10px;&quot;&gt;Date transmise&lt;/span&gt;" style="text;html=1;strokeColor=none;fillColor=none;align=center;verticalAlign=middle;whiteSpace=wrap;rounded=0;fontSize=10;" vertex="1" parent="1">
          <mxGeometry x="530" y="523" width="90" height="27" as="geometry" />
        </mxCell>
        <mxCell id="ppQbEh0lDNAECC2LXvR1-93" style="edgeStyle=orthogonalEdgeStyle;html=1;labelBackgroundColor=none;endArrow=open;endSize=8;strokeColor=#ff0000;fontFamily=Verdana;fontSize=12;align=left;exitX=0.471;exitY=0.589;exitDx=0;exitDy=0;exitPerimeter=0;curved=1;" edge="1" parent="1">
          <mxGeometry relative="1" as="geometry">
            <mxPoint x="519.66" y="600" as="sourcePoint" />
            <mxPoint x="690" y="683" as="targetPoint" />
            <Array as="points">
              <mxPoint x="520" y="653" />
              <mxPoint x="670" y="653" />
              <mxPoint x="670" y="683" />
            </Array>
          </mxGeometry>
        </mxCell>
        <mxCell id="ppQbEh0lDNAECC2LXvR1-94" value="&lt;span style=&quot;font-size: 10px;&quot;&gt;Text&lt;br&gt;generat&lt;/span&gt;" style="text;html=1;strokeColor=none;fillColor=none;align=center;verticalAlign=middle;whiteSpace=wrap;rounded=0;fontSize=10;" vertex="1" parent="1">
          <mxGeometry x="470" y="613" width="65" height="27" as="geometry" />
        </mxCell>
        <mxCell id="ppQbEh0lDNAECC2LXvR1-97" value="&lt;p style=&quot;line-height: 60%;&quot;&gt;&lt;font color=&quot;#004c99&quot;&gt;&lt;span style=&quot;font-size: 8px;&quot;&gt;Client e-mail verificat&lt;/span&gt;&lt;/font&gt;&lt;/p&gt;" style="rounded=1;whiteSpace=wrap;html=1;arcSize=24;shadow=0;comic=0;labelBackgroundColor=none;fontFamily=Verdana;fontSize=12;align=center;fillColor=#66FF66;strokeColor=#000000;" vertex="1" parent="1">
          <mxGeometry x="700" y="680" width="60" height="30" as="geometry" />
        </mxCell>
        <mxCell id="ppQbEh0lDNAECC2LXvR1-99" value="" style="ellipse;html=1;shape=startState;fillColor=#000000;strokeColor=#ff0000;rounded=1;shadow=0;comic=0;labelBackgroundColor=none;fontFamily=Verdana;fontSize=12;fontColor=#000000;align=center;direction=south;" vertex="1" parent="1">
          <mxGeometry x="720" y="723" width="20" height="20" as="geometry" />
        </mxCell>
        <mxCell id="ppQbEh0lDNAECC2LXvR1-100" style="edgeStyle=elbowEdgeStyle;html=1;labelBackgroundColor=none;endArrow=none;endSize=8;strokeColor=#ff0000;fontFamily=Verdana;fontSize=12;align=left;endFill=0;startArrow=open;startFill=0;entryX=0.174;entryY=0.503;entryDx=0;entryDy=0;entryPerimeter=0;exitX=0.5;exitY=1;exitDx=0;exitDy=0;" edge="1" parent="1" source="ppQbEh0lDNAECC2LXvR1-97" target="ppQbEh0lDNAECC2LXvR1-99">
          <mxGeometry relative="1" as="geometry">
            <mxPoint x="730" y="713" as="sourcePoint" />
            <mxPoint x="729.8" y="723" as="targetPoint" />
          </mxGeometry>
        </mxCell>
        <mxCell id="ppQbEh0lDNAECC2LXvR1-103" value="&lt;span style=&quot;font-size: 10px;&quot;&gt;Verificare e-mail&lt;/span&gt;" style="text;html=1;strokeColor=none;fillColor=none;align=center;verticalAlign=middle;whiteSpace=wrap;rounded=0;fontSize=10;" vertex="1" parent="1">
          <mxGeometry x="700" y="633" width="90" height="27" as="geometry" />
        </mxCell>
        <mxCell id="ppQbEh0lDNAECC2LXvR1-106" value="" style="html=1;whiteSpace=wrap;aspect=fixed;shape=isoRectangle;" vertex="1" parent="1">
          <mxGeometry x="800" y="668.5" width="25" height="15" as="geometry" />
        </mxCell>
        <mxCell id="ppQbEh0lDNAECC2LXvR1-104" style="edgeStyle=orthogonalEdgeStyle;html=1;labelBackgroundColor=none;endArrow=open;endSize=8;strokeColor=#ff0000;fontFamily=Verdana;fontSize=12;align=left;exitX=1;exitY=0.5;exitDx=0;exitDy=0;curved=1;entryX=-0.053;entryY=0.494;entryDx=0;entryDy=0;entryPerimeter=0;" edge="1" parent="1" source="ppQbEh0lDNAECC2LXvR1-97" target="ppQbEh0lDNAECC2LXvR1-106">
          <mxGeometry relative="1" as="geometry">
            <mxPoint x="850" y="672" as="sourcePoint" />
            <mxPoint x="850" y="718" as="targetPoint" />
            <Array as="points">
              <mxPoint x="770" y="695" />
              <mxPoint x="770" y="676" />
            </Array>
          </mxGeometry>
        </mxCell>
        <mxCell id="ppQbEh0lDNAECC2LXvR1-112" value="" style="line;strokeWidth=1;html=1;dashed=1;dashPattern=1 2;" vertex="1" parent="1">
          <mxGeometry x="828" y="671" width="15" height="10" as="geometry" />
        </mxCell>
        <mxCell id="ppQbEh0lDNAECC2LXvR1-114" value="&lt;span style=&quot;font-size: 10px;&quot;&gt;inexistent&lt;/span&gt;" style="text;html=1;strokeColor=none;fillColor=none;align=center;verticalAlign=middle;whiteSpace=wrap;rounded=0;fontSize=10;" vertex="1" parent="1">
          <mxGeometry x="843" y="668.5" width="45" height="14" as="geometry" />
        </mxCell>
        <mxCell id="ppQbEh0lDNAECC2LXvR1-115" value="" style="shape=sumEllipse;perimeter=ellipsePerimeter;whiteSpace=wrap;html=1;backgroundOutline=1;" vertex="1" parent="1">
          <mxGeometry x="900" y="673" width="10" height="7" as="geometry" />
        </mxCell>
        <mxCell id="ppQbEh0lDNAECC2LXvR1-116" style="html=1;labelBackgroundColor=none;endArrow=none;endSize=8;strokeColor=#ff0000;fontFamily=Verdana;fontSize=12;align=left;endFill=0;startArrow=open;startFill=0;entryX=1.012;entryY=0.564;entryDx=0;entryDy=0;entryPerimeter=0;exitX=-0.06;exitY=0.495;exitDx=0;exitDy=0;exitPerimeter=0;" edge="1" parent="1" source="ppQbEh0lDNAECC2LXvR1-115" target="ppQbEh0lDNAECC2LXvR1-114">
          <mxGeometry relative="1" as="geometry">
            <mxPoint x="900.01" y="668.5" as="sourcePoint" />
            <mxPoint x="900.01" y="684.5" as="targetPoint" />
          </mxGeometry>
        </mxCell>
        <mxCell id="ppQbEh0lDNAECC2LXvR1-117" style="html=1;labelBackgroundColor=none;endArrow=none;endSize=8;strokeColor=#ff0000;fontFamily=Verdana;fontSize=12;align=left;endFill=0;startArrow=open;startFill=0;entryX=1.189;entryY=0.492;entryDx=0;entryDy=0;exitX=0;exitY=0.5;exitDx=0;exitDy=0;entryPerimeter=0;" edge="1" parent="1" source="ppQbEh0lDNAECC2LXvR1-118" target="ppQbEh0lDNAECC2LXvR1-115">
          <mxGeometry relative="1" as="geometry">
            <mxPoint x="930" y="676.44" as="sourcePoint" />
            <mxPoint x="920" y="676.44" as="targetPoint" />
          </mxGeometry>
        </mxCell>
        <mxCell id="ppQbEh0lDNAECC2LXvR1-118" value="&lt;p style=&quot;line-height: 60%;&quot;&gt;&lt;font color=&quot;#004c99&quot;&gt;&lt;span style=&quot;font-size: 8px;&quot;&gt;Client inexistent&lt;/span&gt;&lt;/font&gt;&lt;/p&gt;" style="rounded=1;whiteSpace=wrap;html=1;arcSize=24;shadow=0;comic=0;labelBackgroundColor=none;fontFamily=Verdana;fontSize=12;align=center;fillColor=#66FF66;strokeColor=#000000;" vertex="1" parent="1">
          <mxGeometry x="940" y="665.75" width="50" height="21.5" as="geometry" />
        </mxCell>
        <mxCell id="ppQbEh0lDNAECC2LXvR1-121" value="&lt;p style=&quot;line-height: 60%;&quot;&gt;&lt;font color=&quot;#004c99&quot;&gt;&lt;span style=&quot;font-size: 8px;&quot;&gt;Copiere brută text&lt;/span&gt;&lt;/font&gt;&lt;/p&gt;" style="rounded=1;whiteSpace=wrap;html=1;arcSize=24;shadow=0;comic=0;labelBackgroundColor=none;fontFamily=Verdana;fontSize=12;align=center;fillColor=#66FF66;strokeColor=#000000;" vertex="1" parent="1">
          <mxGeometry x="793" y="714.5" width="50" height="21.5" as="geometry" />
        </mxCell>
        <mxCell id="ppQbEh0lDNAECC2LXvR1-122" style="edgeStyle=orthogonalEdgeStyle;html=1;labelBackgroundColor=none;endArrow=open;endSize=8;strokeColor=#ff0000;fontFamily=Verdana;fontSize=12;align=left;exitX=0.5;exitY=1.013;exitDx=0;exitDy=0;curved=1;entryX=0.458;entryY=-0.008;entryDx=0;entryDy=0;entryPerimeter=0;exitPerimeter=0;" edge="1" parent="1" source="ppQbEh0lDNAECC2LXvR1-106" target="ppQbEh0lDNAECC2LXvR1-121">
          <mxGeometry relative="1" as="geometry">
            <mxPoint x="770" y="705" as="sourcePoint" />
            <mxPoint x="809" y="686" as="targetPoint" />
          </mxGeometry>
        </mxCell>
        <mxCell id="ppQbEh0lDNAECC2LXvR1-123" value="&lt;p style=&quot;line-height: 50%;&quot;&gt;&lt;font style=&quot;font-size: 5px;&quot;&gt;nu dorește&lt;br&gt;redirecționare&lt;/font&gt;&lt;/p&gt;" style="text;html=1;strokeColor=none;fillColor=none;align=center;verticalAlign=middle;whiteSpace=wrap;rounded=0;fontSize=10;" vertex="1" parent="1">
          <mxGeometry x="770" y="686" width="42" height="18" as="geometry" />
        </mxCell>
        <mxCell id="ppQbEh0lDNAECC2LXvR1-124" value="&lt;p style=&quot;line-height: 60%;&quot;&gt;&lt;font style=&quot;font-size: 7px;&quot; color=&quot;#004c99&quot;&gt;Pornire client și inserare conținut text&lt;/font&gt;&lt;/p&gt;" style="rounded=1;whiteSpace=wrap;html=1;arcSize=24;shadow=0;comic=0;labelBackgroundColor=none;fontFamily=Verdana;fontSize=12;align=center;fillColor=#66FF66;strokeColor=#000000;" vertex="1" parent="1">
          <mxGeometry x="860" y="701.5" width="60" height="31.5" as="geometry" />
        </mxCell>
        <mxCell id="ppQbEh0lDNAECC2LXvR1-126" style="edgeStyle=orthogonalEdgeStyle;html=1;labelBackgroundColor=none;endArrow=open;endSize=8;strokeColor=#ff0000;fontFamily=Verdana;fontSize=12;align=left;exitX=0.987;exitY=0.663;exitDx=0;exitDy=0;curved=1;entryX=0.404;entryY=1.035;entryDx=0;entryDy=0;entryPerimeter=0;exitPerimeter=0;" edge="1" parent="1" source="ppQbEh0lDNAECC2LXvR1-118" target="ppQbEh0lDNAECC2LXvR1-121">
          <mxGeometry relative="1" as="geometry">
            <mxPoint x="1000" y="680" as="sourcePoint" />
            <mxPoint x="1003" y="710" as="targetPoint" />
            <Array as="points">
              <mxPoint x="1000" y="680" />
              <mxPoint x="1000" y="763" />
              <mxPoint x="813" y="763" />
            </Array>
          </mxGeometry>
        </mxCell>
        <mxCell id="ppQbEh0lDNAECC2LXvR1-127" value="" style="ellipse;html=1;shape=endState;fillColor=#000000;strokeColor=#ff0000;rounded=1;shadow=0;comic=0;labelBackgroundColor=none;fontFamily=Verdana;fontSize=12;fontColor=#000000;align=center;" vertex="1" parent="1">
          <mxGeometry x="760" y="714.5" width="10" height="10" as="geometry" />
        </mxCell>
        <mxCell id="ppQbEh0lDNAECC2LXvR1-129" style="edgeStyle=orthogonalEdgeStyle;html=1;labelBackgroundColor=none;endArrow=open;endSize=8;strokeColor=#ff0000;fontFamily=Verdana;fontSize=12;align=left;curved=1;entryX=1;entryY=0.5;entryDx=0;entryDy=0;exitX=0.01;exitY=0.549;exitDx=0;exitDy=0;exitPerimeter=0;" edge="1" parent="1" source="ppQbEh0lDNAECC2LXvR1-121" target="ppQbEh0lDNAECC2LXvR1-127">
          <mxGeometry relative="1" as="geometry">
            <mxPoint x="725.25" y="731" as="sourcePoint" />
            <mxPoint x="764.25" y="763" as="targetPoint" />
          </mxGeometry>
        </mxCell>
        <mxCell id="ppQbEh0lDNAECC2LXvR1-133" style="edgeStyle=elbowEdgeStyle;html=1;labelBackgroundColor=none;endArrow=open;endSize=8;strokeColor=#ff0000;fontFamily=Verdana;fontSize=12;align=left;entryX=1;entryY=0.5;entryDx=0;entryDy=0;exitX=0.199;exitY=1.002;exitDx=0;exitDy=0;exitPerimeter=0;" edge="1" parent="1" source="ppQbEh0lDNAECC2LXvR1-137" target="ppQbEh0lDNAECC2LXvR1-135">
          <mxGeometry relative="1" as="geometry">
            <mxPoint x="450" y="583" as="sourcePoint" />
            <mxPoint x="350" y="592.11" as="targetPoint" />
            <Array as="points">
              <mxPoint x="410" y="563" />
            </Array>
          </mxGeometry>
        </mxCell>
        <mxCell id="ppQbEh0lDNAECC2LXvR1-134" style="edgeStyle=elbowEdgeStyle;html=1;labelBackgroundColor=none;endArrow=open;endSize=8;strokeColor=#ff0000;fontFamily=Verdana;fontSize=12;align=left;exitX=0.467;exitY=0.609;entryX=0.485;entryY=0.348;entryDx=0;entryDy=0;entryPerimeter=0;exitDx=0;exitDy=0;exitPerimeter=0;" edge="1" parent="1" source="ppQbEh0lDNAECC2LXvR1-86">
          <mxGeometry relative="1" as="geometry">
            <mxPoint x="519.6999999999998" y="509" as="sourcePoint" />
            <mxPoint x="520.31" y="553" as="targetPoint" />
          </mxGeometry>
        </mxCell>
        <mxCell id="ppQbEh0lDNAECC2LXvR1-144" value="" style="ellipse;html=1;shape=startState;fillColor=#000000;strokeColor=#ff0000;rounded=1;shadow=0;comic=0;labelBackgroundColor=none;fontFamily=Verdana;fontSize=12;fontColor=#000000;align=center;direction=south;" vertex="1" parent="1">
          <mxGeometry x="190" y="599" width="20" height="20" as="geometry" />
        </mxCell>
        <mxCell id="ppQbEh0lDNAECC2LXvR1-147" value="&lt;span style=&quot;font-size: 10px;&quot;&gt;Colectare&lt;br&gt;statistici&lt;br&gt;&lt;/span&gt;" style="text;html=1;strokeColor=none;fillColor=none;align=center;verticalAlign=middle;whiteSpace=wrap;rounded=0;fontSize=10;" vertex="1" parent="1">
          <mxGeometry x="340" y="543" width="90" height="27" as="geometry" />
        </mxCell>
        <mxCell id="ppQbEh0lDNAECC2LXvR1-148" value="" style="ellipse;html=1;shape=endState;fillColor=#000000;strokeColor=#ff0000;rounded=1;shadow=0;comic=0;labelBackgroundColor=none;fontFamily=Verdana;fontSize=12;fontColor=#000000;align=center;" vertex="1" parent="1">
          <mxGeometry x="195" y="660" width="10" height="10" as="geometry" />
        </mxCell>
        <mxCell id="ppQbEh0lDNAECC2LXvR1-151" style="edgeStyle=elbowEdgeStyle;html=1;labelBackgroundColor=none;endArrow=open;endSize=8;strokeColor=#ff0000;fontFamily=Verdana;fontSize=12;align=left;entryX=1;entryY=0.5;entryDx=0;entryDy=0;" edge="1" parent="1">
          <mxGeometry relative="1" as="geometry">
            <mxPoint x="280" y="653" as="sourcePoint" />
            <mxPoint x="205" y="665.75" as="targetPoint" />
            <Array as="points">
              <mxPoint x="280" y="663" />
            </Array>
          </mxGeometry>
        </mxCell>
        <mxCell id="ppQbEh0lDNAECC2LXvR1-152" value="&lt;span style=&quot;font-size: 10px;&quot;&gt;Colectare&lt;br&gt;date&lt;br&gt;&lt;/span&gt;" style="text;html=1;strokeColor=none;fillColor=none;align=center;verticalAlign=middle;whiteSpace=wrap;rounded=0;fontSize=10;" vertex="1" parent="1">
          <mxGeometry x="220" y="606" width="90" height="27" as="geometry" />
        </mxCell>
        <mxCell id="ppQbEh0lDNAECC2LXvR1-153" value="&lt;span style=&quot;font-size: 7px;&quot;&gt;Sesizare&lt;br style=&quot;font-size: 7px;&quot;&gt;transmisă&lt;br style=&quot;font-size: 7px;&quot;&gt;&lt;/span&gt;" style="text;html=1;strokeColor=none;fillColor=none;align=center;verticalAlign=middle;whiteSpace=wrap;rounded=0;fontSize=7;" vertex="1" parent="1">
          <mxGeometry x="749" y="724.5" width="42" height="20" as="geometry" />
        </mxCell>
        <mxCell id="ppQbEh0lDNAECC2LXvR1-159" value="" style="ellipse;html=1;shape=startState;fillColor=#000000;strokeColor=#ff0000;rounded=1;shadow=0;comic=0;labelBackgroundColor=none;fontFamily=Verdana;fontSize=12;fontColor=#000000;align=center;direction=south;" vertex="1" parent="1">
          <mxGeometry x="1013" y="173.5" width="20" height="20" as="geometry" />
        </mxCell>
        <mxCell id="ppQbEh0lDNAECC2LXvR1-160" value="" style="endArrow=classic;html=1;rounded=0;exitX=0.848;exitY=0.613;exitDx=0;exitDy=0;exitPerimeter=0;" edge="1" parent="1" source="ppQbEh0lDNAECC2LXvR1-159">
          <mxGeometry width="50" height="50" relative="1" as="geometry">
            <mxPoint x="903" y="245.62" as="sourcePoint" />
            <mxPoint x="970" y="233" as="targetPoint" />
          </mxGeometry>
        </mxCell>
        <mxCell id="ppQbEh0lDNAECC2LXvR1-162" value="&lt;span style=&quot;font-size: 10px;&quot;&gt;Colectare feedback&lt;br&gt;&lt;/span&gt;" style="text;html=1;strokeColor=none;fillColor=none;align=center;verticalAlign=middle;whiteSpace=wrap;rounded=0;fontSize=10;" vertex="1" parent="1">
          <mxGeometry x="983" y="215.5" width="72" height="27" as="geometry" />
        </mxCell>
        <mxCell id="ppQbEh0lDNAECC2LXvR1-191" value="&lt;span style=&quot;font-size: 10px;&quot;&gt;Grad administrator&lt;/span&gt;" style="text;html=1;strokeColor=none;fillColor=none;align=center;verticalAlign=middle;whiteSpace=wrap;rounded=0;" vertex="1" parent="1">
          <mxGeometry x="679" y="282.5" width="70" height="23.5" as="geometry" />
        </mxCell>
        <mxCell id="ppQbEh0lDNAECC2LXvR1-195" value="&lt;span style=&quot;font-size: 10px;&quot;&gt;primit&lt;/span&gt;" style="text;html=1;strokeColor=none;fillColor=none;align=center;verticalAlign=middle;whiteSpace=wrap;rounded=0;" vertex="1" parent="1">
          <mxGeometry x="940" y="286.5" width="40" height="16.5" as="geometry" />
        </mxCell>
        <mxCell id="ppQbEh0lDNAECC2LXvR1-198" value="&lt;span style=&quot;font-size: 10px;&quot;&gt;primit&lt;/span&gt;" style="text;html=1;strokeColor=none;fillColor=none;align=center;verticalAlign=middle;whiteSpace=wrap;rounded=0;" vertex="1" parent="1">
          <mxGeometry x="405" y="701.5" width="40" height="16.5" as="geometry" />
        </mxCell>
        <mxCell id="ppQbEh0lDNAECC2LXvR1-203" value="Ghid" style="swimlane;fontStyle=0;childLayout=stackLayout;horizontal=1;startSize=26;fillColor=none;horizontalStack=0;resizeParent=1;resizeParentMax=0;resizeLast=0;collapsible=1;marginBottom=0;whiteSpace=wrap;html=1;rounded=1;" vertex="1" parent="1">
          <mxGeometry x="110" y="348" width="170" height="160" as="geometry" />
        </mxCell>
        <mxCell id="ppQbEh0lDNAECC2LXvR1-204" value="" style="ellipse;html=1;shape=startState;fillColor=#000000;strokeColor=#ff0000;rounded=1;shadow=0;comic=0;labelBackgroundColor=none;fontFamily=Verdana;fontSize=12;fontColor=#000000;align=center;direction=south;" vertex="1" parent="1">
          <mxGeometry x="185" y="383" width="20" height="20" as="geometry" />
        </mxCell>
        <mxCell id="ppQbEh0lDNAECC2LXvR1-205" value="" style="ellipse;html=1;shape=endState;fillColor=#000000;strokeColor=#ff0000;rounded=1;shadow=0;comic=0;labelBackgroundColor=none;fontFamily=Verdana;fontSize=12;fontColor=#000000;align=center;" vertex="1" parent="1">
          <mxGeometry x="190" y="485" width="10" height="10" as="geometry" />
        </mxCell>
        <mxCell id="ppQbEh0lDNAECC2LXvR1-207" value="&lt;font style=&quot;font-size: 7px;&quot;&gt;Accesare&lt;/font&gt;" style="text;html=1;strokeColor=none;fillColor=none;align=center;verticalAlign=middle;whiteSpace=wrap;rounded=0;fontSize=10;" vertex="1" parent="1">
          <mxGeometry x="200" y="402" width="40" height="12" as="geometry" />
        </mxCell>
        <mxCell id="ppQbEh0lDNAECC2LXvR1-208" value="&lt;font style=&quot;font-size: 7px;&quot;&gt;Vizualizare&lt;/font&gt;" style="swimlane;fontStyle=0;childLayout=stackLayout;horizontal=1;startSize=15;fillColor=none;horizontalStack=0;resizeParent=1;resizeParentMax=0;resizeLast=0;collapsible=1;marginBottom=0;whiteSpace=wrap;html=1;rounded=1;" vertex="1" parent="1">
          <mxGeometry x="160" y="428" width="70" height="25" as="geometry" />
        </mxCell>
        <mxCell id="ppQbEh0lDNAECC2LXvR1-202" value="" style="endArrow=classic;html=1;rounded=0;exitX=0.815;exitY=0.492;exitDx=0;exitDy=0;exitPerimeter=0;entryX=0.5;entryY=0;entryDx=0;entryDy=0;" edge="1" parent="1" source="ppQbEh0lDNAECC2LXvR1-204" target="ppQbEh0lDNAECC2LXvR1-208">
          <mxGeometry width="50" height="50" relative="1" as="geometry">
            <mxPoint x="196.79000000000008" y="399.2900000000001" as="sourcePoint" />
            <mxPoint x="195" y="423" as="targetPoint" />
          </mxGeometry>
        </mxCell>
        <mxCell id="ppQbEh0lDNAECC2LXvR1-210" value="" style="endArrow=classic;html=1;rounded=0;exitX=0.5;exitY=1;exitDx=0;exitDy=0;entryX=0.478;entryY=-0.076;entryDx=0;entryDy=0;entryPerimeter=0;" edge="1" parent="1" source="ppQbEh0lDNAECC2LXvR1-208" target="ppQbEh0lDNAECC2LXvR1-205">
          <mxGeometry width="50" height="50" relative="1" as="geometry">
            <mxPoint x="194.5" y="454" as="sourcePoint" />
            <mxPoint x="195.5" y="483" as="targetPoint" />
          </mxGeometry>
        </mxCell>
        <mxCell id="ppQbEh0lDNAECC2LXvR1-216" value="" style="ellipse;html=1;shape=endState;fillColor=#000000;strokeColor=#ff0000;rounded=1;shadow=0;comic=0;labelBackgroundColor=none;fontFamily=Verdana;fontSize=12;fontColor=#000000;align=center;" vertex="1" parent="1">
          <mxGeometry x="920" y="183" width="10" height="10" as="geometry" />
        </mxCell>
        <mxCell id="ppQbEh0lDNAECC2LXvR1-224" value="" style="ellipse;html=1;shape=endState;fillColor=#000000;strokeColor=#ff0000;rounded=1;shadow=0;comic=0;labelBackgroundColor=none;fontFamily=Verdana;fontSize=12;fontColor=#000000;align=center;" vertex="1" parent="1">
          <mxGeometry x="920" y="418" width="10" height="10" as="geometry" />
        </mxCell>
        <mxCell id="ppQbEh0lDNAECC2LXvR1-226" value="&lt;span style=&quot;font-size: 7px;&quot;&gt;Administrare&lt;/span&gt;" style="swimlane;fontStyle=0;childLayout=stackLayout;horizontal=1;startSize=15;fillColor=none;horizontalStack=0;resizeParent=1;resizeParentMax=0;resizeLast=0;collapsible=1;marginBottom=0;whiteSpace=wrap;html=1;rounded=1;" vertex="1" parent="1">
          <mxGeometry x="818" y="375.5" width="70" height="25" as="geometry" />
        </mxCell>
        <mxCell id="ppQbEh0lDNAECC2LXvR1-228" value="" style="endArrow=classic;html=1;rounded=0;exitX=0.5;exitY=1;exitDx=0;exitDy=0;entryX=-0.139;entryY=0.512;entryDx=0;entryDy=0;entryPerimeter=0;" edge="1" parent="1" source="ppQbEh0lDNAECC2LXvR1-226" target="ppQbEh0lDNAECC2LXvR1-224">
          <mxGeometry width="50" height="50" relative="1" as="geometry">
            <mxPoint x="899.5" y="444" as="sourcePoint" />
            <mxPoint x="910" y="443" as="targetPoint" />
          </mxGeometry>
        </mxCell>
      </root>
    </mxGraphModel>
  </diagram>
</mxfile>
